<svg width="588" height="323" viewBox="0 0 588 323" fill="none" xmlns="http://www.w3.org/2000/svg">
<path opacity="0.1" d="M294 323C456.372 323 588 305.357 588 283.594C588 261.83 456.372 244.188 294 244.188C131.628 244.188 0 261.83 0 283.594C0 305.357 131.628 323 294 323Z" fill="#2F9CF0"/>
<path d="M385.724 265.731C400.47 265.731 412.424 255.345 412.424 242.534C412.424 229.723 400.47 219.337 385.724 219.337C370.978 219.337 359.024 229.723 359.024 242.534C359.024 255.345 370.978 265.731 385.724 265.731Z" fill="#FBD56F"/>
<path opacity="0.1" d="M385.724 265.731C400.47 265.731 412.424 255.345 412.424 242.534C412.424 229.723 400.47 219.337 385.724 219.337C370.978 219.337 359.024 229.723 359.024 242.534C359.024 255.345 370.978 265.731 385.724 265.731Z" fill="black"/>
<path d="M390.332 265.731C405.078 265.731 417.032 255.577 417.032 243.051C417.032 230.525 405.078 220.371 390.332 220.371C375.586 220.371 363.631 230.525 363.631 243.051C363.631 255.577 375.586 265.731 390.332 265.731Z" fill="#FBD56F"/>
<path d="M401.147 263.604L398.369 262.339C398.369 262.339 397.07 266.776 397.495 269.938C397.537 270.258 397.698 270.561 397.957 270.804C398.215 271.047 398.559 271.22 398.941 271.298C405.33 272.597 435.782 278.13 456.722 270.337C457.026 270.223 457.288 270.047 457.483 269.826C457.678 269.604 457.8 269.345 457.835 269.073C458.092 267.13 457.183 263.12 456.82 262.339C456.039 260.657 401.147 263.604 401.147 263.604Z" fill="#FBD56F"/>
<path opacity="0.1" d="M401.147 263.604L398.369 262.339C398.369 262.339 397.07 266.776 397.495 269.938C397.537 270.258 397.698 270.561 397.957 270.804C398.215 271.047 398.559 271.22 398.941 271.298C405.33 272.597 435.782 278.13 456.722 270.337C457.026 270.223 457.288 270.047 457.483 269.826C457.678 269.604 457.8 269.345 457.835 269.073C458.092 267.13 457.183 263.12 456.82 262.339C456.039 260.657 401.147 263.604 401.147 263.604Z" fill="black"/>
<path d="M427.594 267.73C443.735 267.73 456.819 265.316 456.819 262.338C456.819 259.361 443.735 256.946 427.594 256.946C411.454 256.946 398.369 259.361 398.369 262.338C398.369 265.316 411.454 267.73 427.594 267.73Z" fill="#FBD56F"/>
<path d="M412.312 255.649L409.535 254.383C409.535 254.383 408.236 258.82 408.66 261.982C408.702 262.303 408.863 262.605 409.122 262.849C409.381 263.092 409.724 263.265 410.107 263.343C416.496 264.641 446.947 270.174 467.888 262.381C468.191 262.268 468.453 262.092 468.649 261.87C468.844 261.649 468.965 261.389 469 261.118C469.257 259.174 468.348 255.164 467.985 254.383C467.204 252.702 412.312 255.649 412.312 255.649Z" fill="#FBD56F"/>
<path opacity="0.1" d="M412.312 255.649L409.535 254.383C409.535 254.383 408.236 258.82 408.66 261.982C408.702 262.303 408.863 262.605 409.122 262.849C409.381 263.092 409.724 263.265 410.107 263.343C416.496 264.641 446.947 270.174 467.888 262.381C468.191 262.268 468.453 262.092 468.649 261.87C468.844 261.649 468.965 261.389 469 261.118C469.257 259.174 468.348 255.164 467.985 254.383C467.204 252.702 412.312 255.649 412.312 255.649Z" fill="black"/>
<path d="M438.76 259.775C454.9 259.775 467.985 257.361 467.985 254.383C467.985 251.405 454.9 248.991 438.76 248.991C422.619 248.991 409.535 251.405 409.535 254.383C409.535 257.361 422.619 259.775 438.76 259.775Z" fill="#FBD56F"/>
<path d="M422.183 245.193L419.406 243.928C419.406 243.928 418.107 248.365 418.532 251.527C418.573 251.847 418.735 252.15 418.993 252.393C419.252 252.636 419.595 252.809 419.978 252.887C426.367 254.186 456.818 259.719 477.759 251.926C478.062 251.812 478.325 251.636 478.52 251.415C478.715 251.193 478.836 250.934 478.872 250.662C479.128 248.719 478.219 244.709 477.856 243.928C477.075 242.246 422.183 245.193 422.183 245.193Z" fill="#FBD56F"/>
<path opacity="0.1" d="M422.183 245.193L419.406 243.928C419.406 243.928 418.107 248.365 418.532 251.527C418.573 251.847 418.735 252.15 418.993 252.393C419.252 252.636 419.595 252.809 419.978 252.887C426.367 254.186 456.818 259.719 477.759 251.926C478.062 251.812 478.325 251.636 478.52 251.415C478.715 251.193 478.836 250.934 478.872 250.662C479.128 248.719 478.219 244.709 477.856 243.928C477.075 242.246 422.183 245.193 422.183 245.193Z" fill="black"/>
<path d="M448.631 249.319C464.772 249.319 477.856 246.905 477.856 243.928C477.856 240.95 464.772 238.536 448.631 238.536C432.49 238.536 419.406 240.95 419.406 243.928C419.406 246.905 432.49 249.319 448.631 249.319Z" fill="#FBD56F"/>
<path d="M411.252 234.309L408.475 233.043C408.475 233.043 407.175 237.48 407.6 240.642C407.642 240.963 407.803 241.265 408.062 241.509C408.32 241.752 408.664 241.925 409.046 242.003C415.435 243.302 445.887 248.835 466.827 241.042C467.131 240.928 467.393 240.752 467.588 240.53C467.783 240.309 467.905 240.049 467.94 239.778C468.197 237.834 467.288 233.825 466.925 233.043C466.144 231.362 411.252 234.309 411.252 234.309Z" fill="#FBD56F"/>
<path opacity="0.1" d="M411.252 234.309L408.475 233.043C408.475 233.043 407.175 237.48 407.6 240.642C407.642 240.963 407.803 241.265 408.062 241.509C408.32 241.752 408.664 241.925 409.046 242.003C415.435 243.302 445.887 248.835 466.827 241.042C467.131 240.928 467.393 240.752 467.588 240.53C467.783 240.309 467.905 240.049 467.94 239.778C468.197 237.834 467.288 233.825 466.925 233.043C466.144 231.362 411.252 234.309 411.252 234.309Z" fill="black"/>
<path d="M437.7 238.435C453.84 238.435 466.925 236.021 466.925 233.043C466.925 230.066 453.84 227.651 437.7 227.651C421.559 227.651 408.474 230.066 408.474 233.043C408.474 236.021 421.559 238.435 437.7 238.435Z" fill="#FBD56F"/>
<path d="M435.844 225.574L433.066 224.309C433.066 224.309 431.767 228.746 432.192 231.908C432.234 232.228 432.395 232.531 432.654 232.774C432.912 233.018 433.256 233.19 433.638 233.268C440.027 234.567 470.479 240.1 491.419 232.307C491.723 232.193 491.985 232.017 492.18 231.796C492.375 231.574 492.497 231.315 492.532 231.043C492.789 229.1 491.88 225.09 491.517 224.309C490.736 222.627 435.844 225.574 435.844 225.574Z" fill="#FBD56F"/>
<path opacity="0.1" d="M435.844 225.574L433.066 224.309C433.066 224.309 431.767 228.746 432.192 231.908C432.234 232.228 432.395 232.531 432.654 232.774C432.912 233.018 433.256 233.19 433.638 233.268C440.027 234.567 470.479 240.1 491.419 232.307C491.723 232.193 491.985 232.017 492.18 231.796C492.375 231.574 492.497 231.315 492.532 231.043C492.789 229.1 491.88 225.09 491.517 224.309C490.736 222.627 435.844 225.574 435.844 225.574Z" fill="black"/>
<path d="M462.291 229.7C478.432 229.7 491.517 227.286 491.517 224.309C491.517 221.331 478.432 218.917 462.291 218.917C446.151 218.917 433.066 221.331 433.066 224.309C433.066 227.286 446.151 229.7 462.291 229.7Z" fill="#FBD56F"/>
<path d="M419.228 219.704L416.451 218.438C416.451 218.438 415.152 222.875 415.576 226.037C415.618 226.357 415.779 226.66 416.038 226.903C416.297 227.147 416.64 227.319 417.022 227.397C423.412 228.696 453.863 234.229 474.803 226.436C475.107 226.323 475.369 226.146 475.565 225.925C475.76 225.703 475.881 225.444 475.916 225.172C476.173 223.229 475.264 219.219 474.901 218.438C474.12 216.757 419.228 219.704 419.228 219.704Z" fill="#FBD56F"/>
<path opacity="0.1" d="M419.228 219.704L416.451 218.438C416.451 218.438 415.152 222.875 415.576 226.037C415.618 226.357 415.779 226.66 416.038 226.903C416.297 227.147 416.64 227.319 417.022 227.397C423.412 228.696 453.863 234.229 474.803 226.436C475.107 226.323 475.369 226.146 475.565 225.925C475.76 225.703 475.881 225.444 475.916 225.172C476.173 223.229 475.264 219.219 474.901 218.438C474.12 216.757 419.228 219.704 419.228 219.704Z" fill="black"/>
<path d="M445.676 223.83C461.817 223.83 474.901 221.416 474.901 218.438C474.901 215.46 461.817 213.046 445.676 213.046C429.535 213.046 416.451 215.46 416.451 218.438C416.451 221.416 429.535 223.83 445.676 223.83Z" fill="#FBD56F"/>
<path d="M430.321 208.37L427.544 207.104C427.544 207.104 426.245 211.541 426.67 214.703C426.711 215.023 426.873 215.326 427.131 215.569C427.39 215.813 427.733 215.985 428.116 216.063C434.505 217.362 464.956 222.895 485.897 215.102C486.2 214.989 486.463 214.812 486.658 214.591C486.853 214.369 486.974 214.11 487.01 213.838C487.267 211.895 486.357 207.885 485.994 207.104C485.213 205.423 430.321 208.37 430.321 208.37Z" fill="#FBD56F"/>
<path opacity="0.1" d="M430.321 208.37L427.544 207.104C427.544 207.104 426.245 211.541 426.67 214.703C426.711 215.023 426.873 215.326 427.131 215.569C427.39 215.813 427.733 215.985 428.116 216.063C434.505 217.362 464.956 222.895 485.897 215.102C486.2 214.989 486.463 214.812 486.658 214.591C486.853 214.369 486.974 214.11 487.01 213.838C487.267 211.895 486.357 207.885 485.994 207.104C485.213 205.423 430.321 208.37 430.321 208.37Z" fill="black"/>
<path d="M456.769 212.496C472.909 212.496 485.994 210.082 485.994 207.104C485.994 204.126 472.909 201.712 456.769 201.712C440.628 201.712 427.544 204.126 427.544 207.104C427.544 210.082 440.628 212.496 456.769 212.496Z" fill="#FBD56F"/>
<path d="M435.793 194.917L433.016 193.651C433.016 193.651 431.717 198.088 432.141 201.25C432.183 201.57 432.344 201.873 432.603 202.116C432.862 202.36 433.205 202.532 433.588 202.61C439.977 203.909 470.428 209.442 491.369 201.649C491.672 201.536 491.935 201.359 492.13 201.138C492.325 200.916 492.446 200.657 492.482 200.385C492.738 198.442 491.829 194.432 491.466 193.651C490.685 191.97 435.793 194.917 435.793 194.917Z" fill="#FBD56F"/>
<path opacity="0.1" d="M435.793 194.917L433.016 193.651C433.016 193.651 431.717 198.088 432.141 201.25C432.183 201.57 432.344 201.873 432.603 202.116C432.862 202.36 433.205 202.532 433.588 202.61C439.977 203.909 470.428 209.442 491.369 201.649C491.672 201.536 491.935 201.359 492.13 201.138C492.325 200.916 492.446 200.657 492.482 200.385C492.738 198.442 491.829 194.432 491.466 193.651C490.685 191.97 435.793 194.917 435.793 194.917Z" fill="black"/>
<path d="M462.241 199.043C478.382 199.043 491.466 196.629 491.466 193.651C491.466 190.673 478.382 188.259 462.241 188.259C446.101 188.259 433.016 190.673 433.016 193.651C433.016 196.629 446.101 199.043 462.241 199.043Z" fill="#FBD56F"/>
<path d="M485.128 266.724L482.35 265.459C482.35 265.459 481.051 269.896 481.476 273.058C481.518 273.378 481.679 273.681 481.938 273.924C482.196 274.167 482.54 274.34 482.922 274.418C489.311 275.717 519.763 281.25 540.703 273.457C541.007 273.343 541.269 273.167 541.464 272.946C541.66 272.724 541.781 272.465 541.816 272.193C542.073 270.25 541.164 266.24 540.801 265.459C540.02 263.777 485.128 266.724 485.128 266.724Z" fill="#FBD56F"/>
<path opacity="0.1" d="M485.128 266.724L482.35 265.459C482.35 265.459 481.051 269.896 481.476 273.058C481.518 273.378 481.679 273.681 481.938 273.924C482.196 274.167 482.54 274.34 482.922 274.418C489.311 275.717 519.763 281.25 540.703 273.457C541.007 273.343 541.269 273.167 541.464 272.946C541.66 272.724 541.781 272.465 541.816 272.193C542.073 270.25 541.164 266.24 540.801 265.459C540.02 263.777 485.128 266.724 485.128 266.724Z" fill="black"/>
<path d="M511.575 270.851C527.716 270.851 540.801 268.437 540.801 265.459C540.801 262.481 527.716 260.067 511.575 260.067C495.435 260.067 482.35 262.481 482.35 265.459C482.35 268.437 495.435 270.851 511.575 270.851Z" fill="#FBD56F"/>
<path d="M494.999 256.269L492.222 255.003C492.222 255.003 490.923 259.44 491.347 262.602C491.389 262.923 491.55 263.225 491.809 263.469C492.068 263.712 492.411 263.884 492.794 263.963C499.183 265.261 529.634 270.794 550.574 263.001C550.878 262.888 551.14 262.712 551.336 262.49C551.531 262.268 551.652 262.009 551.687 261.737C551.944 259.794 551.035 255.784 550.672 255.003C549.891 253.322 494.999 256.269 494.999 256.269Z" fill="#FBD56F"/>
<path opacity="0.1" d="M494.999 256.269L492.222 255.003C492.222 255.003 490.923 259.44 491.347 262.602C491.389 262.923 491.55 263.225 491.809 263.469C492.068 263.712 492.411 263.884 492.794 263.963C499.183 265.261 529.634 270.794 550.574 263.001C550.878 262.888 551.14 262.712 551.336 262.49C551.531 262.268 551.652 262.009 551.687 261.737C551.944 259.794 551.035 255.784 550.672 255.003C549.891 253.322 494.999 256.269 494.999 256.269Z" fill="black"/>
<path d="M521.447 260.395C537.587 260.395 550.672 257.981 550.672 255.003C550.672 252.025 537.587 249.611 521.447 249.611C505.306 249.611 492.221 252.025 492.221 255.003C492.221 257.981 505.306 260.395 521.447 260.395Z" fill="#FBD56F"/>
<path d="M484.067 245.385L481.29 244.119C481.29 244.119 479.991 248.556 480.416 251.718C480.458 252.038 480.619 252.341 480.877 252.584C481.136 252.828 481.48 253 481.862 253.078C488.251 254.377 518.703 259.91 539.643 252.117C539.947 252.004 540.209 251.827 540.404 251.606C540.599 251.384 540.72 251.125 540.756 250.853C541.013 248.91 540.103 244.9 539.74 244.119C538.959 242.437 484.067 245.385 484.067 245.385Z" fill="#FBD56F"/>
<path opacity="0.1" d="M484.067 245.385L481.29 244.119C481.29 244.119 479.991 248.556 480.416 251.718C480.458 252.038 480.619 252.341 480.877 252.584C481.136 252.828 481.48 253 481.862 253.078C488.251 254.377 518.703 259.91 539.643 252.117C539.947 252.004 540.209 251.827 540.404 251.606C540.599 251.384 540.72 251.125 540.756 250.853C541.013 248.91 540.103 244.9 539.74 244.119C538.959 242.437 484.067 245.385 484.067 245.385Z" fill="black"/>
<path d="M510.515 249.511C526.656 249.511 539.74 247.097 539.74 244.119C539.74 241.141 526.656 238.727 510.515 238.727C494.374 238.727 481.29 241.141 481.29 244.119C481.29 247.097 494.374 249.511 510.515 249.511Z" fill="#FBD56F"/>
<path d="M508.659 236.65L505.882 235.384C505.882 235.384 504.583 239.821 505.008 242.983C505.049 243.304 505.211 243.606 505.469 243.85C505.728 244.093 506.072 244.265 506.454 244.344C512.843 245.642 543.295 251.175 564.235 243.382C564.538 243.269 564.801 243.093 564.996 242.871C565.191 242.649 565.312 242.39 565.348 242.118C565.605 240.175 564.695 236.165 564.332 235.384C563.551 233.703 508.659 236.65 508.659 236.65Z" fill="#FBD56F"/>
<path opacity="0.1" d="M508.659 236.65L505.882 235.384C505.882 235.384 504.583 239.821 505.008 242.983C505.049 243.304 505.211 243.606 505.469 243.85C505.728 244.093 506.072 244.265 506.454 244.344C512.843 245.642 543.295 251.175 564.235 243.382C564.538 243.269 564.801 243.093 564.996 242.871C565.191 242.649 565.312 242.39 565.348 242.118C565.605 240.175 564.695 236.165 564.332 235.384C563.551 233.703 508.659 236.65 508.659 236.65Z" fill="black"/>
<path d="M535.107 240.776C551.248 240.776 564.332 238.362 564.332 235.384C564.332 232.406 551.248 229.992 535.107 229.992C518.966 229.992 505.882 232.406 505.882 235.384C505.882 238.362 518.966 240.776 535.107 240.776Z" fill="#FBD56F"/>
<path d="M492.044 230.779L489.267 229.513C489.267 229.513 487.968 233.95 488.392 237.112C488.434 237.433 488.595 237.735 488.854 237.978C489.112 238.222 489.456 238.394 489.838 238.473C496.228 239.771 526.679 245.304 547.619 237.511C547.923 237.398 548.185 237.222 548.38 237C548.576 236.778 548.697 236.519 548.732 236.247C548.989 234.304 548.08 230.294 547.717 229.513C546.936 227.832 492.044 230.779 492.044 230.779Z" fill="#FBD56F"/>
<path opacity="0.1" d="M492.044 230.779L489.267 229.513C489.267 229.513 487.968 233.95 488.392 237.112C488.434 237.433 488.595 237.735 488.854 237.978C489.112 238.222 489.456 238.394 489.838 238.473C496.228 239.771 526.679 245.304 547.619 237.511C547.923 237.398 548.185 237.222 548.38 237C548.576 236.778 548.697 236.519 548.732 236.247C548.989 234.304 548.08 230.294 547.717 229.513C546.936 227.832 492.044 230.779 492.044 230.779Z" fill="black"/>
<path d="M518.492 234.905C534.632 234.905 547.717 232.491 547.717 229.513C547.717 226.535 534.632 224.121 518.492 224.121C502.351 224.121 489.266 226.535 489.266 229.513C489.266 232.491 502.351 234.905 518.492 234.905Z" fill="#FBD56F"/>
<path d="M503.137 219.445L500.36 218.179C500.36 218.179 499.061 222.616 499.485 225.778C499.527 226.099 499.688 226.401 499.947 226.645C500.205 226.888 500.549 227.061 500.931 227.139C507.321 228.438 537.772 233.97 558.712 226.177C559.016 226.064 559.278 225.888 559.473 225.666C559.669 225.445 559.79 225.185 559.825 224.914C560.082 222.97 559.173 218.961 558.81 218.179C558.029 216.498 503.137 219.445 503.137 219.445Z" fill="#FBD56F"/>
<path opacity="0.1" d="M503.137 219.445L500.36 218.179C500.36 218.179 499.061 222.616 499.485 225.778C499.527 226.099 499.688 226.401 499.947 226.645C500.205 226.888 500.549 227.061 500.931 227.139C507.321 228.438 537.772 233.97 558.712 226.177C559.016 226.064 559.278 225.888 559.473 225.666C559.669 225.445 559.79 225.185 559.825 224.914C560.082 222.97 559.173 218.961 558.81 218.179C558.029 216.498 503.137 219.445 503.137 219.445Z" fill="black"/>
<path d="M529.585 223.571C545.726 223.571 558.81 221.157 558.81 218.179C558.81 215.201 545.726 212.787 529.585 212.787C513.444 212.787 500.36 215.201 500.36 218.179C500.36 221.157 513.444 223.571 529.585 223.571Z" fill="#FBD56F"/>
<path d="M508.609 205.992L505.832 204.726C505.832 204.726 504.532 209.163 504.957 212.325C504.999 212.646 505.16 212.948 505.419 213.192C505.677 213.435 506.021 213.608 506.403 213.686C512.792 214.985 543.244 220.517 564.184 212.724C564.488 212.611 564.75 212.435 564.945 212.213C565.141 211.992 565.262 211.732 565.297 211.461C565.554 209.517 564.645 205.508 564.282 204.726C563.501 203.045 508.609 205.992 508.609 205.992Z" fill="#FBD56F"/>
<path opacity="0.1" d="M508.609 205.992L505.832 204.726C505.832 204.726 504.532 209.163 504.957 212.325C504.999 212.646 505.16 212.948 505.419 213.192C505.677 213.435 506.021 213.608 506.403 213.686C512.792 214.985 543.244 220.517 564.184 212.724C564.488 212.611 564.75 212.435 564.945 212.213C565.141 211.992 565.262 211.732 565.297 211.461C565.554 209.517 564.645 205.508 564.282 204.726C563.501 203.045 508.609 205.992 508.609 205.992Z" fill="black"/>
<path d="M535.056 210.118C551.197 210.118 564.282 207.704 564.282 204.726C564.282 201.748 551.197 199.334 535.056 199.334C518.916 199.334 505.831 201.748 505.831 204.726C505.831 207.704 518.916 210.118 535.056 210.118Z" fill="#FBD56F"/>
<path d="M446.377 298.827C461.123 298.827 473.077 288.441 473.077 275.63C473.077 262.819 461.123 252.433 446.377 252.433C431.631 252.433 419.677 262.819 419.677 275.63C419.677 288.441 431.631 298.827 446.377 298.827Z" fill="#FBD56F"/>
<path opacity="0.1" d="M446.377 298.827C461.123 298.827 473.077 288.441 473.077 275.63C473.077 262.819 461.123 252.433 446.377 252.433C431.631 252.433 419.677 262.819 419.677 275.63C419.677 288.441 431.631 298.827 446.377 298.827Z" fill="black"/>
<path d="M450.985 298.827C465.732 298.827 477.686 288.672 477.686 276.146C477.686 263.621 465.732 253.466 450.985 253.466C436.239 253.466 424.285 263.621 424.285 276.146C424.285 288.672 436.239 298.827 450.985 298.827Z" fill="#FBD56F"/>
<path d="M64.0851 288.378C82.2978 288.378 97.0621 286.335 97.0621 283.815C97.0621 281.295 82.2978 279.252 64.0851 279.252C45.8724 279.252 31.1082 281.295 31.1082 283.815C31.1082 286.335 45.8724 288.378 64.0851 288.378Z" fill="#3F3D56"/>
<path d="M77.721 276.35C79.1332 275.276 80.458 274.009 80.865 272.466C81.2719 270.924 80.4687 269.075 78.668 268.511C76.6503 267.88 74.4942 269.024 72.8595 270.18C71.2248 271.336 69.3513 272.655 67.2119 272.411C68.3124 271.594 69.1357 270.559 69.6017 269.404C70.0677 268.25 70.1604 267.017 69.8709 265.824C69.7769 265.332 69.5213 264.87 69.1314 264.487C68.0113 263.507 65.9809 263.928 64.6397 264.7C60.3747 267.155 59.1847 271.897 59.1615 276.165C58.7314 274.625 59.0936 273.021 59.083 271.442C59.0724 269.863 58.5437 268.112 56.9161 267.264C55.9022 266.817 54.762 266.598 53.6111 266.628C51.694 266.571 49.5587 266.728 48.2494 267.876C46.6226 269.302 47.0445 271.694 48.4598 273.264C49.8751 274.834 52.0278 275.818 54.0093 276.902C55.5988 277.677 56.9544 278.735 57.9752 279.998C58.0952 280.174 58.1937 280.359 58.2692 280.551H70.2882C72.9862 279.432 75.4865 278.019 77.721 276.35Z" fill="#1D4383"/>
<path d="M362.305 254.062C363.774 255.708 364.976 257.504 365.879 259.404C366.118 259.895 366.352 260.411 366.573 260.952C370.126 269.643 364.496 280.064 362.887 278.94C361.277 277.816 356.262 275.73 355.293 278.661C354.323 281.592 350.741 284.588 350.741 284.588C344.214 289.961 338.307 284.156 334.429 278.158C333.162 276.179 332.035 274.142 331.055 272.057C330.194 270.215 329.7 268.942 329.7 268.942L356.883 249.985C356.883 249.985 359.511 250.972 362.305 254.062Z" fill="#3F3D56"/>
<path d="M319.462 266.183C320.931 267.83 322.132 269.625 323.036 271.525C323.275 272.017 323.508 272.533 323.729 273.074C327.282 281.765 321.653 292.186 320.043 291.062C318.434 289.938 313.419 287.852 312.449 290.783C311.479 293.714 307.897 296.71 307.897 296.71C301.371 302.082 295.463 296.277 291.585 290.279C290.318 288.301 289.192 286.263 288.212 284.178C287.351 282.336 286.856 281.063 286.856 281.063L314.04 262.106C314.04 262.106 316.668 263.094 319.462 266.183Z" fill="#3F3D56"/>
<path d="M233.436 282.93C233.284 284.964 232.809 286.974 232.023 288.909C231.824 289.412 231.601 289.931 231.349 290.464C227.308 299.01 214.848 304.093 214.486 302.387C214.123 300.681 211.889 296.455 208.857 298.205C205.825 299.955 200.731 300.39 200.731 300.39C191.517 301.118 191.495 293.563 193.187 286.92C193.754 284.734 194.476 282.578 195.347 280.46C196.12 278.593 196.732 277.354 196.732 277.354L232.441 276.959C232.441 276.959 233.695 279.092 233.436 282.93Z" fill="#3F3D56"/>
<path d="M187.298 273.405C187.145 275.44 186.67 277.45 185.885 279.385C185.685 279.888 185.463 280.407 185.211 280.94C181.17 289.486 168.71 294.569 168.348 292.863C167.985 291.157 165.75 286.931 162.718 288.681C159.686 290.431 154.593 290.866 154.593 290.866C145.379 291.594 145.357 284.039 147.048 277.396C147.616 275.21 148.337 273.054 149.208 270.936C149.982 269.068 150.594 267.83 150.594 267.83L186.303 267.435C186.303 267.435 187.556 269.568 187.298 273.405Z" fill="#3F3D56"/>
<path d="M434.816 145.314C434.816 223.379 402.551 286.662 253.657 286.662C153.605 286.662 76.2003 266.315 72.4977 145.314C70.1097 67.2747 153.605 3.96667 253.657 3.96667C353.708 3.96667 434.816 67.2502 434.816 145.314Z" fill="#FFC05F"/>
<path opacity="0.2" d="M219.673 6.43414H219.695C219.69 6.43661 219.684 6.43818 219.679 6.43875L219.673 6.43414Z" fill="black"/>
<path opacity="0.2" d="M220.027 6.38669C220.487 6.32609 221.397 6.22217 222.719 6.13989L219.773 6.42565C219.815 6.41699 219.868 6.40832 219.932 6.39967C219.964 6.39533 219.99 6.39099 220.027 6.38669Z" fill="black"/>
<path opacity="0.2" d="M353.889 64.1423L340.666 68.0386C333.925 60.6397 326.672 53.5629 318.943 46.8429C310.506 39.4781 301.301 32.7293 291.433 26.6733C257.576 6.13562 231.389 5.6118 222.74 6.13992L242.618 4.22644C261.404 6.87212 279.471 12.2173 295.982 20.015C307.533 25.4651 318.291 31.9701 328.051 39.4054C345.357 52.5531 353.889 64.1423 353.889 64.1423Z" fill="black"/>
<path opacity="0.2" d="M234.351 71.5017C234.351 71.5017 216.896 23.8807 231.706 10.8932C231.706 10.8932 254.979 4.39939 272.434 41.1974L234.351 71.5017Z" fill="black"/>
<path d="M322.735 27.0237C322.735 27.0237 369.023 -5.17123 389.5 0.720054C389.5 0.720054 406.107 15.5617 371.93 43.4136L322.735 27.0237Z" fill="#3F3D56"/>
<path d="M467.081 181.246C467.081 223.207 430.291 256.358 395.675 256.358C361.059 256.358 341.724 223.207 341.724 181.246C341.724 139.285 369.844 106.909 404.402 105.269C459.147 102.672 467.081 139.285 467.081 181.246Z" fill="#3F3D56"/>
<path d="M393.559 199.646C399.986 199.646 405.196 194.218 405.196 187.524C405.196 180.829 399.986 175.402 393.559 175.402C387.132 175.402 381.923 180.829 381.923 187.524C381.923 194.218 387.132 199.646 393.559 199.646Z" fill="#FFC05F"/>
<path d="M434.816 189.256C441.243 189.256 446.452 183.828 446.452 177.134C446.452 170.439 441.243 165.012 434.816 165.012C428.389 165.012 423.179 170.439 423.179 177.134C423.179 183.828 428.389 189.256 434.816 189.256Z" fill="#FFC05F"/>
<path d="M330.309 31.5867C330.317 34.3019 329.544 36.9804 328.051 39.4052C326.08 42.6272 322.884 45.2375 318.943 46.8427C310.506 39.4779 301.302 32.7292 291.433 26.6731C292.312 24.1998 293.868 21.9229 295.982 20.0148C297.804 18.3517 300.033 17.0203 302.524 16.1067C305.015 15.1932 307.713 14.7179 310.443 14.7115C321.413 14.7115 330.309 22.2659 330.309 31.5867Z" fill="#FAD46F"/>
</svg>
