<svg width="1250" height="969" viewBox="0 0 1280 975" fill="none" xmlns="http://www.w3.org/2000/svg">
<path d="M1194.06 667.715L1065.39 728.609L1179.27 643.461C1160.76 614.573 1139.97 587.213 1117.09 561.645L559.035 700.338L1063.12 508.068C1040.08 487.747 1015.62 469.103 989.917 452.28L139.572 589.234C49.2866 702.124 0.0695065 842.352 0 986.899H1280C1279.95 874.796 1250.3 764.692 1194.06 667.715Z" fill="#FFC05F"/>
<path d="M920.323 412.744C833.018 370.167 737.136 348.104 640 348.242C442.305 348.242 265.555 437.876 148.157 578.709C349.19 534.666 699.203 458.424 920.323 412.744Z" fill="#FFC05F"/>
<path d="M1015.42 972.604C997.759 969.611 980.769 967.041 964.457 964.893L970.905 952.391C968.731 951.636 959.177 958.796 959.177 958.796L967.64 922.505C956.703 923.824 951.143 960.879 951.143 960.879L938.924 948.351L944.839 962.436C901.927 957.248 858.751 954.531 815.526 954.298L821.046 943.598C818.871 942.842 809.318 950.002 809.318 950.002L817.781 913.711C806.844 915.03 801.283 952.085 801.283 952.085L789.064 939.557L795.33 954.475C770.481 954.885 745.67 956.571 720.993 959.524C726.576 942.855 745.541 927.001 745.541 927.001C731.058 931.308 723.46 938.525 719.491 945.254C719.136 910.86 724.855 876.672 736.386 844.266C736.386 844.266 706.45 909.404 710.269 953.128L710.726 960.892C685.347 964.526 672.587 968.306 672.587 968.306L1015.42 972.604Z" fill="#3F3D56"/>
<path d="M619.394 970.272C601.728 967.28 584.739 964.709 568.426 962.562L574.875 950.06C572.701 949.305 563.147 956.464 563.147 956.464L571.61 920.174C560.673 921.492 555.113 958.547 555.113 958.547L542.893 946.019L548.809 960.104C505.896 954.917 462.721 952.2 419.496 951.967L425.016 941.266C422.841 940.511 413.287 947.671 413.287 947.671L421.75 911.38C410.814 912.699 405.253 949.754 405.253 949.754L393.034 937.226L399.3 952.144C374.451 952.554 349.639 954.239 324.963 957.193C330.546 940.523 349.511 924.669 349.511 924.669C335.028 928.976 327.43 936.194 323.46 942.923C323.105 908.528 328.825 874.341 340.356 841.934C340.356 841.934 310.419 907.073 314.239 950.797L314.696 958.561C289.316 962.194 276.556 965.975 276.556 965.975L619.394 970.272Z" fill="#3F3D56"/>
<path d="M1047.4 984.329C1047.4 1004.2 862.7 1064 634.863 1064C407.026 1064 222.328 1004.2 222.328 984.329C222.328 964.457 407.026 992.039 634.863 992.039C862.7 992.039 1047.4 964.457 1047.4 984.329Z" fill="#3F3D56"/>
<path opacity="0.1" d="M1047.4 984.329C1047.4 1004.2 862.7 1064 634.863 1064C407.026 1064 222.328 1004.2 222.328 984.329C222.328 964.457 407.026 992.039 634.863 992.039C862.7 992.039 1047.4 964.457 1047.4 984.329Z" fill="black"/>
<path d="M634.863 1020.31C862.7 1020.31 1047.4 1004.2 1047.4 984.329C1047.4 964.457 862.7 948.348 634.863 948.348C407.026 948.348 222.328 964.457 222.328 984.329C222.328 1004.2 407.026 1020.31 634.863 1020.31Z" fill="#3F3D56"/>
<path opacity="0.1" d="M658.639 995.894C851.342 995.894 1007.56 986.689 1007.56 975.333C1007.56 963.978 851.342 954.773 658.639 954.773C465.936 954.773 309.719 963.978 309.719 975.333C309.719 986.689 465.936 995.894 658.639 995.894Z" fill="black"/>
<path d="M533.288 843.51C533.865 925.374 485.394 954.296 425.359 954.719C423.965 954.729 422.577 954.723 421.195 954.701C418.413 954.661 415.658 954.554 412.933 954.379C358.722 950.925 316.41 921.174 315.874 845.041C315.319 766.252 415.327 666.114 422.828 658.709C422.834 658.709 422.834 658.709 422.841 658.702C423.126 658.42 423.272 658.279 423.272 658.279C423.272 658.279 532.712 761.653 533.288 843.51Z" fill="#FFC05F"/>
<path d="M421.314 942.225L460.682 886.399L421.257 948.323L421.195 954.702C418.413 954.661 415.658 954.554 412.933 954.379L416.639 872.452L416.602 871.819L416.674 871.698L417.027 863.956L376.633 802.441L417.106 858.158L417.218 859.799L420.018 797.899L385.361 734.282L420.362 787.022L422.828 658.709L422.838 658.282L422.841 658.702L422.993 759.877L456.758 719.529L422.907 768.59L422.397 824.002L453.828 770.608L422.327 832.149L422.044 862.96L467.68 788.624L421.94 873.709L421.314 942.225Z" fill="#3F3D56"/>
<path d="M805.661 963.076H907.284L873.528 908.524L849.747 906.542L863.681 892.61L778.761 755.369V732.954H767.34L698.06 567.087L710.016 550.65L698.06 541.684H691.423L652.638 189.776H658.457L667.424 164.373V115.061H655.468V91.1523H640.524V44.829H637.535V0H634.546V44.829H630.062V91.1523H616.612V115.061H603.162V164.373L613.623 189.776H619.669L590.583 541.684H590.459L571.031 547.661L581.493 565.593L582.24 567.087H581.493L523.333 732.954H508.264L509.759 755.369L384.225 963.076H487.342V939.168H481.364C481.364 939.168 500.792 807.669 641.271 795.715C784.738 792.726 811.639 936.179 811.639 936.179H805.661V963.076ZM875.651 914.512L879.636 928.458L861.703 916.504L875.651 914.512ZM853.732 918.496L875.651 932.443L851.74 930.451L853.732 918.496ZM827.828 932.443L841.777 916.504L847.755 932.443H827.828ZM804.487 844.28L809.61 856.234L787.407 844.28H804.487ZM797.868 836.594L799.576 826.348L818.364 838.302L797.868 836.594ZM829.821 890.603L835.799 904.55L809.895 890.603H829.821ZM802.779 880.143L814.734 866.48L819.858 880.143H802.779ZM823.274 878.435L824.982 868.188L843.769 880.143L823.274 878.435ZM843.769 906.542L835.799 890.603H857.717L843.769 906.542ZM847.185 876.727L831.814 866.48L843.769 864.773L847.185 876.727ZM842.061 859.649L821.566 857.942L833.522 845.987L842.061 859.649ZM816.442 857.942L809.61 844.28H828.398L816.442 857.942ZM821.779 834.887L806.408 824.64L818.364 822.932L821.779 834.887ZM816.656 817.809L796.16 816.101L808.116 804.147L816.656 817.809ZM791.036 816.101L784.205 802.439H802.992L791.036 816.101ZM767.979 793.26L769.687 783.013L788.474 794.968L767.979 793.26ZM784.205 814.394L762.001 802.439H779.081L784.205 814.394ZM791.89 791.552L776.519 781.305L788.474 779.598L791.89 791.552ZM786.766 774.474L766.271 772.767L778.227 760.812L786.766 774.474ZM773.103 759.104L761.147 772.766L754.315 759.104H773.103ZM754.315 771.059L732.112 759.104H749.192L754.315 771.059ZM586.48 732.954L617.36 595.479H665.182L706.056 732.954H586.48ZM691.549 772.553L669.345 760.599H686.425L691.549 772.553ZM652.266 769.565L646.288 776.396L642.872 769.565H652.266ZM642.872 775.542L631.77 769.565H640.31L642.872 775.542ZM568.79 690.367L591.207 676.918L585.229 702.321L568.79 690.367ZM580.745 705.31H544.879L564.306 693.355L580.745 705.31ZM635.753 228.513L629.43 234.835L623.107 228.513H635.753ZM623.107 225.754L629.43 219.432L635.753 225.754H623.107ZM635.753 243.686H623.107L629.43 237.364L635.753 243.686ZM630.695 236.099L637.017 229.777V242.422L630.695 236.099ZM636.787 249.548V264.491L629.315 257.02L636.787 249.548ZM630.695 218.168L637.017 211.846V224.49L630.695 218.168ZM632.304 201.731L637.286 196.75V206.712L632.304 201.731ZM636.289 207.708H626.326L631.308 202.727L636.289 207.708ZM631.308 200.734L626.326 195.753H636.289L631.308 200.734ZM630.312 201.731L625.33 206.712V196.75L630.312 201.731ZM635.753 210.581L629.43 216.903L623.107 210.581H635.753ZM628.166 218.168L621.843 224.49V211.846L628.166 218.168ZM628.166 236.099L621.843 242.422V229.777L628.166 236.099ZM635.293 248.054L627.821 255.525L620.348 248.054H635.293ZM635.293 265.985H620.348L627.821 258.514L635.293 265.985ZM636.787 271.963V286.906L629.315 279.434L636.787 271.963ZM635.293 270.468L627.821 277.94L620.348 270.468H635.293ZM635.293 288.4H620.348L627.821 280.928L635.293 288.4ZM636.443 295.642V314.033L627.246 304.837L636.443 295.642ZM634.603 315.872H616.21L625.407 306.676L634.603 315.872ZM636.443 322.539V340.93L627.246 331.735L636.443 322.539ZM634.603 320.7L625.407 329.896L616.21 320.7H634.603ZM634.603 342.769H616.21L625.407 333.574L634.603 342.769ZM636.04 350.413V372.828L624.832 361.621L636.04 350.413ZM633.799 375.069H611.382L622.59 363.862L633.799 375.069ZM636.04 383.288V405.703L624.832 394.495L636.04 383.288ZM633.799 381.047L622.59 392.254L611.382 381.047H633.799ZM633.799 407.944H611.382L622.59 396.737L633.799 407.944ZM635.638 417.14V443.577L622.418 430.358L635.638 417.14ZM632.994 446.221H606.553L619.774 433.002L632.994 446.221ZM635.293 460.244V490.13L620.348 475.187L635.293 460.244ZM632.304 493.119H602.415L617.36 478.176L632.304 493.119ZM635.063 505.418V537.603L618.969 521.511L635.063 505.418ZM631.844 502.2L615.75 518.292L599.656 502.2H631.844ZM631.844 540.822H599.656L615.75 524.729L631.844 540.822ZM595.69 635.078H565.801L583.734 624.617L595.69 635.078ZM586.723 621.629L606.151 609.674L601.668 636.572L586.723 621.629ZM598.679 642.549L594.195 667.952L582.24 654.503L598.679 642.549ZM591.207 639.56L576.262 651.515L565.801 639.56H591.207ZM589.712 669.446H558.329L574.768 657.492L589.712 669.446ZM599.96 759.104L593.128 772.766L581.172 759.104H599.96ZM605.084 759.104H622.163L599.96 771.059L605.084 759.104ZM717.57 686.943L701.981 699.987L694.291 675.048L717.57 686.943ZM690.699 666.306L684.5 641.267L701.714 652.077L690.699 666.306ZM709.372 654.551L726.585 665.361L695.274 667.493L709.372 654.551ZM707.475 648.689L691.752 637.777L717.099 636.051L707.475 648.689ZM686.975 633.609L698.192 622.361L716.795 631.579L686.975 633.609ZM681.112 635.506L674.812 608.976L695.007 619.583L681.112 635.506ZM644.719 540.822L660.814 524.729L676.908 540.822H644.719ZM641.501 537.603V505.418L657.595 521.511L641.501 537.603ZM644.719 502.2H676.908L660.814 518.292L644.719 502.2ZM644.26 493.119L659.204 478.176L674.149 493.119L644.26 493.119ZM641.271 490.13V460.244L656.215 475.187L641.271 490.13ZM640.926 443.577V417.14L654.146 430.358L640.926 443.577ZM656.79 433.002L670.01 446.221H643.57L656.79 433.002ZM645.869 236.099L639.546 242.421V229.777L645.869 236.099ZM640.811 228.513H653.456L647.134 234.835L640.811 228.513ZM639.776 271.963L647.249 279.434L639.776 286.906V271.963ZM641.271 270.468H656.215L648.743 277.94L641.271 270.468ZM640.121 322.539L649.318 331.735L640.121 340.93V322.539ZM641.961 320.7H660.354L651.157 329.895L641.961 320.7ZM640.524 383.288L651.732 394.495L640.524 405.703V383.288ZM642.765 381.047H665.182L653.974 392.254L642.765 381.047ZM653.974 396.737L665.182 407.944H642.765L653.974 396.737ZM656.215 394.495L667.424 383.288V405.703L656.215 394.495ZM642.765 375.069L653.974 363.862L665.182 375.069H642.765ZM640.524 372.828V350.413L651.732 361.621L640.524 372.828ZM651.157 333.574L660.354 342.769H641.961L651.157 333.574ZM652.996 331.735L662.193 322.539V340.93L652.996 331.735ZM641.961 315.872L651.157 306.676L660.354 315.872H641.961ZM640.121 314.033V295.641L649.318 304.837L640.121 314.033ZM648.743 280.928L656.215 288.4H641.271L648.743 280.928ZM650.238 279.434L657.71 271.963V286.906L650.238 279.434ZM641.271 265.985L648.743 258.514L656.215 265.985H641.271ZM639.776 264.491V249.548L647.249 257.02L639.776 264.491ZM647.134 237.364L653.456 243.686H640.811L647.134 237.364ZM648.398 236.099L654.721 229.777V242.422L648.398 236.099ZM640.811 225.754L647.134 219.432L653.456 225.754H640.811ZM639.546 224.49V211.846L645.869 218.168L639.546 224.49ZM646.252 201.731L651.234 196.749V206.712L646.252 201.731ZM650.238 207.708H640.275L645.256 202.727L650.238 207.708ZM645.256 200.734L640.275 195.753H650.238L645.256 200.734ZM644.26 201.731L639.278 206.712V196.749L644.26 201.731ZM710.336 760.599L698.38 774.261L691.549 760.599H710.336ZM706.657 702.664L722.246 689.62L742.441 700.227L706.657 702.664ZM745.118 695.552L724.821 683.454L736.14 673.697L745.118 695.552ZM720.145 680.777L701.543 671.559L731.363 669.529L720.145 680.777ZM729.262 660.685L712.151 651.366L721.775 638.729L729.262 660.685ZM717.981 627.005L700.869 617.686L710.596 606.539L717.981 627.005ZM708.902 603.659L697.786 616.398L677.59 605.791L708.902 603.659ZM680.127 537.603L664.033 521.511L680.127 505.418V537.603ZM677.138 490.13L662.193 475.187L677.138 460.244V490.13ZM659.204 472.199L644.26 457.256H674.149L659.204 472.199ZM672.654 443.577L659.434 430.358L672.654 417.14V443.577ZM656.79 427.715L643.57 414.496H670.01L656.79 427.715ZM667.424 372.828L656.215 361.621L667.424 350.413V372.828ZM653.974 359.379L642.765 348.172H665.182L653.974 359.379ZM662.193 314.033L652.996 304.837L662.193 295.642V314.033ZM651.157 302.998L641.961 293.802H660.354L651.157 302.998ZM657.71 264.491L650.238 257.02L657.71 249.548V264.491ZM648.743 255.525L641.271 248.054H656.215L648.743 255.525ZM654.721 224.49L648.398 218.168L654.721 211.846V224.49ZM647.134 216.903L640.811 210.581H653.456L647.134 216.903ZM618.854 249.548L626.326 257.02L618.854 264.491V249.548ZM618.854 271.963L626.326 279.434L618.854 286.906V271.963ZM634.603 293.802L625.407 302.998L616.21 293.802H634.603ZM614.371 295.641L623.567 304.837L614.371 314.033V295.641ZM614.371 322.539L623.567 331.735L614.371 340.93V322.539ZM633.799 348.172L622.59 359.379L611.382 348.172H633.799ZM609.14 350.413L620.348 361.621L609.14 372.828V350.413ZM609.14 383.288L620.348 394.495L609.14 405.702V383.288ZM632.994 414.496L619.774 427.715L606.553 414.496H632.994ZM603.909 417.14L617.13 430.358L603.909 443.577V417.14ZM632.304 457.256L617.36 472.199L602.415 457.256H632.304ZM599.426 460.244L614.371 475.187L599.426 490.13V460.244ZM596.437 505.418L612.531 521.511L596.437 537.603V505.418ZM603.162 606.686L583.734 618.64L571.779 606.686L603.162 606.686ZM570.284 609.674L580.745 620.135L564.306 630.595L570.284 609.674ZM561.318 642.549L571.779 654.503L555.34 664.964L561.318 642.549ZM583.734 673.929L565.801 684.389L553.845 673.929H583.734ZM549.362 678.412L561.318 687.378L541.89 700.827L549.362 678.412ZM557.902 759.104L535.698 771.059L540.822 759.104H557.902ZM535.698 759.104L528.867 772.766L516.911 759.104H535.698ZM511.787 760.812L523.743 772.766L503.247 774.474L511.787 760.812ZM531.001 802.439L508.798 814.393L513.922 802.439H531.001ZM501.539 794.968L520.327 783.013L522.035 793.26L501.539 794.968ZM501.539 779.598L513.495 781.305L498.123 791.552L501.539 779.598ZM508.798 802.439L501.966 816.101L490.011 802.439H508.798ZM484.887 804.147L496.842 816.101L476.347 817.809L484.887 804.147ZM483.108 890.603L457.204 904.55L463.182 890.603H483.108ZM449.233 880.143L468.021 868.188L469.729 878.435L449.233 880.143ZM473.145 880.143L478.269 866.48L490.224 880.143H473.145ZM505.596 844.28L483.392 856.234L488.516 844.28H505.596ZM474.639 838.302L493.427 826.348L495.135 836.594L474.639 838.302ZM474.639 822.932L486.595 824.64L471.223 834.887L474.639 822.932ZM483.392 844.28L476.561 857.942L464.605 844.28H483.392ZM459.481 845.987L471.437 857.942L450.941 859.649L459.481 845.987ZM449.233 864.773L461.189 866.48L445.818 876.727L449.233 864.773ZM457.204 890.603L449.233 906.542L435.285 890.603H457.204ZM417.352 914.512L431.3 916.504L413.367 928.458L417.352 914.512ZM417.352 932.443L439.27 918.496L441.263 930.451L417.352 932.443ZM419.344 908.534L429.307 892.595L443.256 906.542L419.344 908.534ZM445.248 932.443L451.226 916.504L465.174 932.443H445.248ZM473.145 930.451L459.196 914.512L483.108 912.519L473.145 930.451ZM485.1 906.542H463.182L491.078 892.595L485.1 906.542ZM497.056 878.435L485.1 864.773L505.596 863.065L497.056 878.435ZM507.304 857.942H488.516L512.427 845.987L507.304 857.942ZM498.55 838.302L503.674 824.64L515.63 838.302H498.55ZM522.462 836.594L510.506 822.932L531.002 821.225L522.462 836.594ZM532.709 816.101H513.922L537.833 804.147L532.709 816.101ZM525.451 794.968L530.574 781.305L542.53 794.968H525.451ZM549.362 793.26L537.406 779.598L557.902 777.89L549.362 793.26ZM540.822 772.766L564.733 760.812L559.61 772.766H540.822ZM565.801 779.598L577.756 781.305L562.385 791.552L565.801 779.598ZM565.801 794.968L584.588 783.013L586.296 793.26L565.801 794.968ZM567.509 774.474L576.049 760.812L588.004 772.767L567.509 774.474ZM589.712 794.968L594.836 781.305L606.792 794.968H589.712ZM613.623 793.26L601.668 779.598L622.163 777.89L613.623 793.26ZM605.084 772.767L628.995 760.812L623.871 772.767H605.084ZM628.354 770.418L640.31 776.396H630.916L628.354 770.418ZM631.77 778.957L642.018 779.811L636.04 786.642L631.77 778.957ZM639.456 787.496L645.434 780.665L647.996 787.496H639.456ZM654.828 770.418L659.098 777.25L648.85 776.396L654.828 770.418ZM649.704 786.642L650.558 781.519L659.952 787.496L649.704 786.642ZM653.974 780.665L659.952 779.811L661.659 785.788L653.974 780.665ZM662.514 762.306L686.425 774.261H667.637L662.514 762.306ZM669.345 779.384L689.841 781.092L677.885 794.754L669.345 779.384ZM684.717 796.462L696.672 782.8L701.796 796.462H684.717ZM715.46 762.306L724 775.969L703.504 774.261L715.46 762.306ZM705.212 794.754L706.92 784.508L725.708 796.462L705.212 794.754ZM713.752 782.8L725.708 781.092L729.123 793.046L713.752 782.8ZM725.281 760.812L749.192 772.767H730.404L725.281 760.812ZM732.112 777.89L752.608 779.598L740.652 793.26L732.112 777.89ZM759.439 781.306L764.563 794.968H747.484L759.439 781.306ZM760.294 816.101L755.17 804.147L779.081 816.101H760.294ZM762.001 821.225L782.497 822.933L770.541 836.595L762.001 821.225ZM789.329 824.64L794.452 838.302H777.373L789.329 824.64ZM780.575 845.987L804.487 857.942H785.699L780.575 845.987ZM787.407 863.065L807.903 864.773L795.947 878.435L787.407 863.065ZM801.925 892.595L829.821 906.542H807.902L801.925 892.595ZM809.895 912.519L833.806 914.512L819.858 930.451L809.895 912.519Z" fill="#3F3D56"/>
<path opacity="0.1" d="M628.568 121.038H609.14V130.004H628.568V121.038Z" fill="black"/>
<path opacity="0.1" d="M659.952 121.038H640.524V130.004H659.952V121.038Z" fill="black"/>
<path d="M996.092 941.847C979.984 951.345 973.643 970.436 973.643 970.436C973.643 970.436 993.42 974.129 1009.53 964.632C1025.64 955.134 1031.98 936.043 1031.98 936.043C1031.98 936.043 1012.2 932.35 996.092 941.847Z" fill="#3F3D56"/>
<path d="M1001.74 947.736C992.716 964.115 973.817 971.013 973.817 971.013C973.817 971.013 969.544 951.355 978.565 934.976C987.585 918.597 1006.48 911.699 1006.48 911.699C1006.48 911.699 1010.76 931.357 1001.74 947.736Z" fill="#FFC05F"/>
</svg>
